<?xml version="1.0" standalone="no"?>
<!DOCTYPE svg PUBLIC "-//W3C//DTD SVG 20010904//EN"
 "http://www.w3.org/TR/2001/REC-SVG-20010904/DTD/svg10.dtd">
<svg version="1.0" xmlns="http://www.w3.org/2000/svg"
 width="446.000000pt" height="446.000000pt" viewBox="0 0 446.000000 446.000000"
 preserveAspectRatio="xMidYMid meet">
<metadata>
Created by potrace 1.11, written by Peter Selinger 2001-2013
</metadata>
<g transform="translate(0.000000,446.000000) scale(0.100000,-0.100000)"
fill="#000000" stroke="none">
<path d="M0 2230 l0 -2230 2230 0 2230 0 0 2230 0 2230 -2230 0 -2230 0 0
-2230z m2540 1835 l0 -45 90 0 90 0 0 -45 0 -44 93 -3 92 -3 3 -42 c3 -40 5
-43 32 -43 51 0 60 -9 60 -56 l0 -44 45 0 45 0 0 -45 0 -45 45 0 45 0 0 -90 0
-90 45 0 45 0 0 -364 0 -365 -42 -3 -43 -3 -3 -92 -3 -93 -44 0 -45 0 0 -90 0
-90 45 0 45 0 0 -185 0 -185 -45 0 -45 0 0 -45 0 -45 -45 0 -45 0 0 -45 0 -45
-90 0 -90 0 0 45 0 45 -50 0 -50 0 0 -45 0 -45 -45 0 -45 0 0 -140 0 -140 -45
0 -45 0 0 95 0 95 -45 0 -44 0 -3 -92 -3 -93 -87 -3 -87 -3 -3 93 -3 93 -47 3
-48 3 0 -95 0 -96 -90 0 -90 0 0 95 0 95 -45 0 -44 0 -3 -92 -3 -93 -42 -3
-43 -3 0 140 0 141 -45 0 -45 0 0 45 0 45 45 0 45 0 0 90 0 90 -140 0 -140 0
0 -45 0 -45 90 0 90 0 0 -45 0 -45 -45 0 -45 0 0 -45 0 -45 -90 0 -90 0 0 45
0 45 -45 0 -45 0 0 45 0 45 -45 0 -45 0 0 185 0 185 45 0 45 0 0 90 0 90 -45
0 -44 0 -3 93 -3 92 -42 3 -43 3 0 365 0 364 45 0 45 0 0 90 0 90 45 0 45 0 0
45 0 45 45 0 45 0 0 45 c0 40 3 45 23 46 64 3 62 1 65 52 l3 47 95 0 94 0 0
45 0 45 90 0 90 0 0 45 0 45 320 0 320 0 0 -45z m-2020 -1560 l0 -45 45 0 45
0 0 -44 0 -45 48 -3 47 -3 3 -42 c3 -42 3 -42 45 -45 l42 -3 3 -47 3 -48 45 0
44 0 0 -45 0 -45 90 0 90 0 0 -45 0 -45 44 0 45 0 3 -42 3 -43 47 -3 48 -3 0
-45 0 -44 45 0 45 0 0 -45 0 -45 45 0 45 0 0 -45 0 -45 -90 0 -90 0 0 45 0 45
-95 0 -95 0 0 45 0 45 -90 0 -90 0 0 45 0 45 -45 0 -45 0 0 45 0 45 -90 0
c-86 0 -90 1 -96 24 -3 13 -4 32 -2 42 3 18 -7 19 -179 22 l-182 2 -3 48 -3
47 -42 3 -43 3 0 45 0 44 45 0 45 0 0 45 0 45 45 0 45 0 0 90 0 90 90 0 90 0
0 -45z m3580 -45 l0 -90 45 0 45 0 0 -45 0 -45 45 0 45 0 0 -45 0 -45 -45 0
-45 0 0 -50 0 -50 -185 0 -185 0 0 -45 0 -45 -90 0 -90 0 0 -45 0 -45 -45 0
-45 0 0 -45 0 -44 -92 -3 -93 -3 -3 -42 -3 -43 -90 0 -89 0 0 -45 0 -45 -90 0
-90 0 0 45 0 45 45 0 45 0 0 45 0 45 45 0 45 0 0 45 0 45 45 0 45 0 0 44 0 45
48 3 47 3 3 43 3 42 90 0 89 0 0 44 0 45 43 3 42 3 3 48 3 47 45 0 44 0 0 45
0 45 45 0 45 0 0 45 0 45 50 0 50 0 0 45 0 45 90 0 90 0 0 -90z m-2480 -915
l0 -185 45 0 45 0 0 -45 0 -45 -45 0 -45 0 0 45 0 45 -45 0 -45 0 0 185 0 185
45 0 45 0 0 -185z m1285 0 l0 -180 -42 -3 -43 -3 0 186 0 186 43 -3 42 -3 0
-180z m-1005 -185 l0 -90 45 0 45 0 0 90 0 90 90 0 90 0 0 -90 0 -90 50 0 50
0 0 90 0 90 90 0 90 0 0 -90 0 -90 45 0 45 0 0 90 0 90 45 0 45 0 0 -90 0 -90
45 0 45 0 0 45 0 45 45 0 45 0 0 -45 0 -45 -45 0 -45 0 0 -90 0 -90 -90 0 -90
0 0 -50 0 -50 -319 0 -320 0 -3 48 -3 47 -87 3 -88 3 0 89 0 90 45 0 45 0 0
90 0 90 45 0 45 0 0 -90z m-370 -275 l0 -95 -45 0 -45 0 0 -45 0 -45 -89 0
-90 0 -3 -42 -3 -43 -92 -3 -93 -3 0 -44 0 -45 -90 0 -90 0 0 -45 0 -45 -44 0
-45 0 -3 -46 -3 -46 -88 -1 c-95 -2 -97 -1 -93 58 2 28 5 30 50 33 l47 3 -3
42 -3 42 -47 3 -48 3 0 -45 0 -46 -45 0 -45 0 0 90 0 90 44 0 45 0 3 43 3 42
183 3 182 2 0 45 0 44 93 3 c73 2 92 6 93 18 1 8 2 27 3 42 1 27 1 27 89 30
l87 3 3 48 3 47 90 0 89 0 0 -95z m1560 45 l0 -50 90 0 90 0 0 -45 0 -45 95 0
95 0 0 -45 0 -45 180 0 180 0 0 -45 0 -45 45 0 45 0 1 -57 c0 -32 1 -73 2 -91
2 -32 2 -32 -45 -32 l-48 0 0 -47 0 -48 -90 3 -90 3 0 45 0 44 -45 0 -45 0 0
45 0 45 -89 0 -90 0 -3 43 -3 42 -92 3 -93 3 0 44 0 45 -90 0 -90 0 0 45 0 45
-45 0 -45 0 0 95 0 95 90 0 90 0 0 -50z"/>
<path d="M1350 3010 l0 -90 45 0 45 0 0 -140 0 -140 -45 0 -45 0 0 -45 0 -45
45 0 45 0 0 -135 0 -135 45 0 45 0 0 -45 0 -45 -45 0 -45 0 0 -50 0 -50 45 0
45 0 0 45 0 45 140 0 140 0 0 -45 0 -45 91 0 90 0 -3 48 -3 47 -87 3 -88 3 0
44 0 45 90 0 90 0 0 45 0 45 45 0 45 0 0 90 0 90 45 0 45 0 0 45 0 45 44 0 45
0 3 -42 3 -43 48 -3 47 -3 0 -90 0 -89 45 0 45 0 0 -45 0 -45 90 0 90 0 0 -45
0 -45 -90 0 -90 0 0 -50 0 -50 90 0 90 0 0 -90 0 -90 45 0 45 0 0 45 0 45 95
0 95 0 0 45 0 45 46 0 45 0 -3 48 -3 47 -42 3 -43 3 0 45 0 44 45 0 45 0 0
135 0 135 45 0 45 0 0 45 0 45 -45 0 -45 0 0 140 0 140 45 0 45 0 0 90 0 90
-45 0 -45 0 0 -90 0 -90 -45 0 -45 0 0 -140 0 -140 -44 0 -45 0 -3 48 -3 47
-182 3 -182 2 -3 -47 -3 -48 -87 -3 -87 -3 -3 48 -3 48 -45 0 -45 0 -3 -47 -3
-48 -89 0 -89 0 -3 48 -3 47 -180 0 -180 0 -3 -47 -3 -48 -45 0 -44 0 0 140 0
140 -45 0 -45 0 0 90 0 90 -45 0 -45 0 0 -90z m180 -415 l0 -45 -45 0 -45 0 0
45 0 45 45 0 45 0 0 -45z m1470 0 l0 -45 -45 0 -45 0 0 45 0 45 45 0 45 0 0
-45z m-90 -460 l0 -45 -140 0 -140 0 0 45 0 45 140 0 140 0 0 -45z"/>
<path d="M1810 2965 l0 -45 135 0 135 0 0 -45 0 -45 45 0 45 0 0 45 0 45 -45
0 -45 0 0 45 0 45 -135 0 -135 0 0 -45z"/>
<path d="M2360 2965 l0 -45 -50 0 -50 0 0 -45 0 -45 50 0 50 0 0 45 0 45 135
0 135 0 0 45 0 45 -135 0 -135 0 0 -45z"/>
<path d="M2170 2326 l0 -46 -45 0 -45 0 0 -185 0 -185 45 0 45 0 0 45 0 45 44
0 45 0 3 -42 3 -43 48 -3 47 -3 0 185 0 186 -44 0 -45 0 -3 43 -3 42 -47 3
-48 3 0 -45z"/>
<path d="M3730 675 l0 -45 45 0 45 0 0 45 0 45 -45 0 -45 0 0 -45z"/>
</g>
</svg>
